<svg width="512" height="485" viewBox="0 0 512 485" fill="none" xmlns="http://www.w3.org/2000/svg">
<path fill-rule="evenodd" clip-rule="evenodd" d="M155.82 211.328H280.914C300.898 211.328 317.254 227.683 317.254 247.668C317.254 267.652 300.898 284.008 280.914 284.008H379.59L450.058 212.773C461.797 200.894 481.129 200.812 493.004 212.547C504.883 224.308 504.996 243.644 493.234 255.519L384.605 365.308C374.289 374.578 362.015 382.742 347.047 382.742H179.574L149.043 436.375C100.742 521.215 -27.4729 448.223 20.8005 363.379L86.2849 248.348C100.937 222.637 128.633 211.582 155.82 211.328V211.328Z" fill="#FEDE94"/>
<path fill-rule="evenodd" clip-rule="evenodd" d="M280.914 36.1133L293.047 23.9805C311.613 5.41406 341.972 5.41406 360.539 23.9805C379.105 42.5469 379.105 72.9102 360.539 91.4492C334.008 118.008 307.445 144.543 280.914 171.074C254.379 144.543 227.82 118.008 201.289 91.4492C182.719 72.9102 182.719 42.5508 201.289 23.9805C219.855 5.41406 250.215 5.41406 268.754 23.9805L280.914 36.1133Z" fill="#EF685E"/>
<path d="M280.914 201.266C293.668 201.266 305.293 206.48 313.683 214.898C322.101 223.289 327.316 234.91 327.316 247.668C327.316 257.418 324.285 266.461 319.097 273.945H375.422L442.945 205.656C450.484 198.117 460.773 193.836 471.433 193.781C493.855 193.668 511.883 211.555 512 233.949C512.054 244.098 507.605 256.344 499.836 263.09L391.722 372.395C386.703 377.441 378.457 383.164 372.133 386.426C364.539 390.309 356.234 392.805 347.047 392.805H314.336C308.777 392.805 304.273 388.297 304.273 382.738C304.273 377.184 308.777 372.676 314.336 372.676H347.047C352.832 372.676 358.133 371.09 363.008 368.594C368.25 365.902 373.211 362.047 377.859 357.879L485.578 249C489.66 244.207 492.015 240.809 491.957 234.031C491.871 215.805 469.902 207.16 457.176 219.887L387.242 290.527C385.402 292.711 382.652 294.07 379.59 294.07H213.164C207.609 294.07 203.101 289.563 203.101 284.008C203.101 278.449 207.609 273.945 213.164 273.945H280.914C288.113 273.945 294.691 270.996 299.453 266.234C304.246 261.441 307.191 254.895 307.191 247.668C307.191 240.469 304.246 233.891 299.453 229.129C294.691 224.336 288.14 221.391 280.914 221.391L155.82 221.332C143.008 221.477 130.136 224.254 118.996 230.176C109.304 235.336 100.91 242.934 95.0153 253.309L29.5349 368.34C14.5114 394.73 19.1325 419.676 33.1911 437.336C38.7771 444.367 45.8044 450.32 53.656 454.77C61.5388 459.277 70.2419 462.309 79.113 463.5C101.48 466.562 125.289 457.832 140.316 431.441L170.476 378.461C172.062 375.059 175.55 372.676 179.574 372.676H233.886C239.414 372.676 243.922 377.184 243.922 382.738C243.922 388.297 239.414 392.805 233.886 392.805H185.386L157.746 441.332C138.019 476.031 106.324 487.453 76.4489 483.398C64.9685 481.84 53.8278 477.957 43.7653 472.23C33.6716 466.477 24.6286 458.879 17.4567 449.836C-1.30888 426.195 -7.65654 393.113 12.0739 358.445L77.5544 243.414C85.4606 229.523 96.6872 219.375 109.586 212.516C123.363 205.172 140.23 201.262 155.82 201.32L280.914 201.266ZM208.402 84.3594C201.09 77.0469 197.433 67.3828 197.433 57.7148C197.433 48.0469 201.09 38.4102 208.402 31.0977C223.058 16.4414 247.011 16.4414 261.668 31.0977L273.801 43.2305C277.738 47.168 284.09 47.168 288.027 43.2305L300.164 31.0977C307.476 23.7852 317.14 20.125 326.808 20.125C336.476 20.125 346.113 23.7813 353.426 31.0977C360.742 38.4102 364.398 48.0469 364.398 57.7148C364.398 67.3789 360.742 77.0469 353.426 84.3594L280.914 156.875C276.211 152.141 271.39 147.461 266.742 142.699C262.801 138.758 256.453 138.758 252.511 142.699C248.625 146.582 248.597 152.848 252.398 156.789C259.425 164.016 266.656 171.074 273.801 178.191C277.738 182.129 284.09 182.129 288.027 178.191L367.656 98.5625C378.879 87.3359 384.519 72.5117 384.519 57.7148C384.519 42.918 378.879 28.1211 367.656 16.8672C356.402 5.61328 341.605 0 326.808 0C312.008 0 297.183 5.61328 285.957 16.8672L280.914 21.9102L275.867 16.8672C253.414 -5.58594 216.621 -5.58594 194.172 16.8672C182.918 28.1211 177.304 42.918 177.304 57.7148C177.304 72.5117 182.918 87.3359 194.172 98.5625C198.621 103.012 204.547 105.281 209.847 100.008C215.261 94.5938 212.711 88.668 208.402 84.3594ZM238.281 114.238C234.367 110.297 227.988 110.297 224.05 114.238C220.136 118.18 220.136 124.527 224.05 128.469C227.988 132.379 234.367 132.379 238.281 128.469C242.218 124.527 242.218 118.18 238.281 114.238ZM274.109 372.676C279.668 372.676 284.176 377.184 284.176 382.738C284.176 388.297 279.668 392.805 274.109 392.805C268.554 392.805 264.047 388.297 264.047 382.738C264.047 377.184 268.554 372.676 274.109 372.676Z" fill="#212121"/>
</svg>
