<?xml version="1.0" encoding="iso-8859-1"?>
<!-- Generator: Adobe Illustrator 19.0.0, SVG Export Plug-In . SVG Version: 6.00 Build 0)  -->
<svg version="1.1" id="Capa_1" xmlns="http://www.w3.org/2000/svg" xmlns:xlink="http://www.w3.org/1999/xlink" x="0px" y="0px"
	 viewBox="0 0 512 512" style="enable-background:new 0 0 512 512;" xml:space="preserve">
<path style="fill:#FF5A59;" d="M432.503,130.707c-13.842-97.956-112.958-76.114-132.089-19.645
	c-19.131-56.469-118.248-78.311-132.089,19.645c-15.474,109.51,107.288,164.081,132.089,169.694
	C325.216,294.789,447.978,240.217,432.503,130.707z"/>
<path style="fill:#CE3A4C;" d="M432.503,130.707c-7.717-54.611-41.938-71.976-74.027-66.876
	c22.35,4.193,42.442,24.122,47.889,66.876c12.934,101.526-81.239,155.825-112.858,167.676c2.758,0.932,5.1,1.609,6.908,2.018
	C325.216,294.789,447.978,240.217,432.503,130.707z"/>
<g>
	<path style="fill:#8BA7BC;" d="M124.492,31.731c-4.179,0-7.567-3.387-7.567-7.567V7.567c0-4.179,3.387-7.567,7.567-7.567
		c4.18,0,7.567,3.387,7.567,7.567v16.598C132.058,28.344,128.671,31.731,124.492,31.731z"/>
	<path style="fill:#8BA7BC;" d="M124.492,82.757c-4.179,0-7.567-3.387-7.567-7.567V58.591c0-4.179,3.387-7.567,7.567-7.567
		c4.18,0,7.567,3.387,7.567,7.567V75.19C132.058,79.369,128.671,82.757,124.492,82.757z"/>
	<path style="fill:#8BA7BC;" d="M158.304,48.945h-16.599c-4.179,0-7.566-3.387-7.566-7.567s3.387-7.567,7.566-7.567h16.599
		c4.179,0,7.566,3.387,7.566,7.567S162.483,48.945,158.304,48.945z"/>
	<path style="fill:#8BA7BC;" d="M107.278,48.945H90.68c-4.179,0-7.566-3.387-7.566-7.567s3.387-7.567,7.566-7.567h16.598
		c4.179,0,7.567,3.387,7.567,7.567S111.457,48.945,107.278,48.945z"/>
	<path style="fill:#8BA7BC;" d="M412.598,422.572c-4.179,0-7.566-3.387-7.566-7.566v-16.598c0-4.179,3.387-7.566,7.566-7.566
		c4.179,0,7.566,3.387,7.566,7.566v16.598C420.165,419.185,416.779,422.572,412.598,422.572z"/>
	<path style="fill:#8BA7BC;" d="M412.598,473.598c-4.179,0-7.566-3.387-7.566-7.566v-16.598c0-4.179,3.387-7.566,7.566-7.566
		c4.179,0,7.566,3.387,7.566,7.566v16.598C420.165,470.211,416.779,473.598,412.598,473.598z"/>
	<path style="fill:#8BA7BC;" d="M446.41,439.786h-16.598c-4.179,0-7.566-3.387-7.566-7.566c0-4.179,3.387-7.566,7.566-7.566h16.598
		c4.179,0,7.566,3.387,7.566,7.566C453.977,436.399,450.589,439.786,446.41,439.786z"/>
	<path style="fill:#8BA7BC;" d="M395.386,439.786h-16.599c-4.179,0-7.566-3.387-7.566-7.566c0-4.179,3.387-7.566,7.566-7.566h16.599
		c4.179,0,7.566,3.387,7.566,7.566C402.952,436.399,399.565,439.786,395.386,439.786z"/>
</g>
<path style="fill:#FFCCAA;" d="M438.84,301.85c-8.4-9.027-22.522-9.546-31.549-1.145l-58.282,54.175
	c-5.928,5.516-13.915,8.245-21.979,7.509l-102.71-2.985c-9.652-0.287-17.601-7.638-18.637-17.228
	c-0.293-2.668-0.027-5.296,0.73-7.758c1.522-4.951,5.027-9.205,9.869-11.613l34.503-17.134c12.79-5.823,18.45-20.898,12.64-33.684
	c-3.134-6.91-8.974-11.737-15.691-13.803c-5.741-1.765-12.113-1.527-18.006,1.158l-66.397,30.164
	c-9.434,4.292-16.59,12.418-19.634,22.321l-11.976,38.956c-1.057,3.439-2.776,6.646-5.075,9.41l-36.842,43.423l90.186,76.076
	l43.173-51.056c4.139-4.982,9.915-8.333,16.296-9.461l122.34-21.475c5.407-0.959,10.437-3.456,14.458-7.199l61.424-57.106
	C446.722,324.999,447.227,310.873,438.84,301.85z"/>
<g>
	<path style="fill:#F2A077;" d="M234.189,288.986l-34.503,17.134c-4.841,2.408-8.346,6.662-9.868,11.613
		c-0.757,2.462-1.023,5.09-0.73,7.758c0.964,8.923,7.915,15.899,16.652,17.059c-0.016-0.126-0.044-0.248-0.058-0.374
		c-0.293-2.668-0.027-5.296,0.73-7.758c1.522-4.951,5.027-9.206,9.868-11.613l34.503-17.134c12.79-5.823,18.45-20.898,12.64-33.684
		c-3.102-6.84-8.857-11.635-15.489-13.735C251.716,270.327,246.008,283.605,234.189,288.986z"/>
	<path style="fill:#F2A077;" d="M438.84,301.85c-3.13-3.364-7.055-5.542-11.214-6.522c1.735,7.525-0.467,15.744-6.538,21.383
		l-61.424,57.105c-4.022,3.744-9.051,6.24-14.458,7.2L222.862,402.49c-6.381,1.129-12.157,4.48-16.296,9.461l-43.173,51.056
		L91.13,402.05l-1.329,1.566l90.186,76.076l43.173-51.056c4.139-4.982,9.915-8.333,16.296-9.461L361.799,397.7
		c5.407-0.959,10.437-3.456,14.458-7.199l61.424-57.106C446.722,324.999,447.227,310.873,438.84,301.85z"/>
</g>
<path style="fill:#75DC5E;" d="M83.839,379.741l-25.816,32.941L177.75,512l26.375-33.654c5.448-6.951,4.373-16.975-2.424-22.613
	l-94.612-78.484C100.02,371.385,89.505,372.512,83.839,379.741z"/>
<path style="fill:#2AAD52;" d="M201.701,455.733l-16.851-13.978c1.876,5.365,1.073,11.53-2.681,16.319l-27.353,34.902L177.75,512
	l26.375-33.654C209.572,471.395,208.498,461.371,201.701,455.733z"/>
<g>
</g>
<g>
</g>
<g>
</g>
<g>
</g>
<g>
</g>
<g>
</g>
<g>
</g>
<g>
</g>
<g>
</g>
<g>
</g>
<g>
</g>
<g>
</g>
<g>
</g>
<g>
</g>
<g>
</g>
</svg>
