<svg id="Layer_1" enable-background="new 0 0 511.5 511.5" height="512" viewBox="0 0 511.5 511.5" width="512" xmlns="http://www.w3.org/2000/svg"><g><path d="m187.5 212.25c-1.039 0-3.458-.323-6.5-.741v-59.259c0-49.901-40.598-90.5-90.5-90.5s-90.5 40.599-90.5 90.5v129 93 38c0 20.678 16.822 37.5 37.5 37.5 19.068 0 34.858-14.306 37.2-32.748 6.323 4.856 14.232 7.748 22.8 7.748 20.678 0 37.5-16.822 37.5-37.5v-6.518c6.271 4.718 14.065 7.518 22.5 7.518 20.678 0 37.5-16.822 37.5-37.5v-131c0-4.143-3.358-7.5-7.5-7.5z" fill="#fff4f4"/><path d="m316.5 219.75v131c0 20.678 16.822 37.5 37.5 37.5 8.435 0 16.229-2.8 22.5-7.518v6.518c0 20.678 16.822 37.5 37.5 37.5 8.568 0 16.477-2.892 22.8-7.748 2.342 18.442 18.132 32.748 37.2 32.748 20.678 0 37.5-16.822 37.5-37.5v-38-93-129c0-49.901-40.598-90.5-90.5-90.5s-90.5 40.599-90.5 90.5v59.259c-3.042.418-5.461.741-6.5.741-4.142 0-7.5 3.357-7.5 7.5z" fill="#f6efea"/><g><path d="m255.5 375.194c-25.096 0-63.549-31.496-88.853-58.468-17.483-18.636-58.148-66.944-58.148-112.924 0-46.592 37.906-84.497 84.498-84.497 24.351 0 46.767 10.169 62.502 27.54 15.735-17.371 38.151-27.54 62.502-27.54 46.592 0 84.498 37.905 84.498 84.497 0 48.201-36.526 93.212-58.298 115.753-26.75 27.695-64.553 55.639-88.701 55.639z" fill="#ff415b"/></g><path d="m318.002 119.306c-24.351 0-46.767 10.169-62.502 27.54v228.349c24.148 0 61.951-27.944 88.702-55.639 21.772-22.541 58.298-67.552 58.298-115.753 0-46.592-37.906-84.497-84.498-84.497z" fill="#e50058"/></g></svg>