<svg width="514" height="301" viewBox="0 0 514 301" fill="none" xmlns="http://www.w3.org/2000/svg">
<path d="M44.8274 88.4286C69.585 88.4286 89.655 108.498 89.655 133.256C89.655 158.013 69.585 178.083 44.8274 178.083C20.07 178.083 0 158.013 0 133.256C0 108.498 20.07 88.4286 44.8274 88.4286V88.4286Z" fill="url(#paint0_linear)"/>
<path fill-rule="evenodd" clip-rule="evenodd" d="M350.413 69.4996L319.321 98.5801C327.348 105.835 335.795 113.193 344.674 120.598L350.453 75.6715C350.737 73.4626 350.705 71.3525 350.413 69.4996Z" fill="#0DA369"/>
<path fill-rule="evenodd" clip-rule="evenodd" d="M319.803 59.8387C322.263 60.6042 324.632 61.2823 327.193 62.0817C331.122 63.3098 348.898 68.908 350.349 69.1209C349.699 65.5089 348.039 62.9563 345.815 62.7113L319.803 59.8387Z" fill="#008B7A"/>
<path fill-rule="evenodd" clip-rule="evenodd" d="M319.321 98.5801L350.413 69.4996C350.393 69.3722 350.372 69.2458 350.349 69.1209C348.897 68.908 331.122 63.3098 327.193 62.0817C324.632 61.2823 322.263 60.6042 319.803 59.8387L309.822 58.7366C306.402 58.3598 302.896 63.5727 302.028 70.3249L300.631 81.1818C306.59 86.8936 312.818 92.7029 319.321 98.5801V98.5801Z" fill="#289171"/>
<path fill-rule="evenodd" clip-rule="evenodd" d="M176.314 77.0421L131.087 119.408C131.94 120.064 137.389 121.529 138.776 121.959C141.392 122.77 143.922 123.524 146.511 124.329L147.715 124.7C160.965 120.243 174.157 115.193 186.604 109.607C186.392 108.75 186.179 107.894 185.964 107.037C185.494 105.163 179.52 79.2759 178.39 75.6387C177.707 76.1039 177.008 76.5735 176.314 77.0421Z" fill="#784196"/>
<path fill-rule="evenodd" clip-rule="evenodd" d="M178.938 75.2644C181.529 76.3292 192.155 79.4709 194.011 80.0044C199.309 81.5309 204.325 83.2282 209.631 84.8025C214.326 86.1942 219.268 87.7094 224.075 89.2453C224.707 88.8188 225.344 88.3941 225.964 87.9635C231.249 84.292 234.573 80.5434 236.645 76.6415L227.496 38.4534C217.315 46.5283 201.234 60.0301 178.938 75.2644V75.2644Z" fill="#00989D"/>
<path fill-rule="evenodd" clip-rule="evenodd" d="M78.7174 142.924C77.6525 138.398 76.5552 133.721 75.5728 129.545C61.1263 135.082 45.689 140.23 29.2383 144.767C29.4282 149.337 49.966 148.424 78.7174 142.924V142.924Z" fill="#F7204B"/>
<path fill-rule="evenodd" clip-rule="evenodd" d="M131.087 119.408L130.956 119.553L133.285 129.319C138.08 127.858 142.901 126.32 147.715 124.7L146.511 124.329C143.922 123.524 141.392 122.77 138.776 121.959C137.389 121.529 131.94 120.064 131.087 119.408Z" fill="#BD4F6C"/>
<path fill-rule="evenodd" clip-rule="evenodd" d="M234.024 33.48C236.281 34.1471 238.544 34.8074 240.437 35.3975C240.515 34.9107 240.596 34.4218 240.688 33.9288C241.532 29.3691 239.344 29.7168 234.024 33.48Z" fill="#00A7AE"/>
<path fill-rule="evenodd" clip-rule="evenodd" d="M127.722 106.02C129.345 112.81 130.859 118.992 131.087 119.408L176.314 77.0421C162.445 86.3955 146.271 96.3309 127.722 106.02Z" fill="#AB4A9E"/>
<path fill-rule="evenodd" clip-rule="evenodd" d="M178.39 75.6387C179.52 79.2759 185.494 105.163 185.964 107.037C186.179 107.894 186.392 108.75 186.604 109.607C200.318 103.451 213.115 96.641 224.075 89.2453C219.268 87.7094 214.326 86.1942 209.631 84.8025C204.325 83.2282 199.309 81.5309 194.011 80.0044C192.155 79.4709 181.529 76.3292 178.938 75.2644L178.39 75.6387Z" fill="#4B7A85"/>
<path fill-rule="evenodd" clip-rule="evenodd" d="M112.194 113.787L130.956 119.553L131.087 119.408C130.859 118.992 129.345 112.81 127.722 106.02C122.72 108.633 117.543 111.227 112.194 113.787Z" fill="#CC3177"/>
<path fill-rule="evenodd" clip-rule="evenodd" d="M130.956 119.553L114.93 134.57C120.956 132.958 127.098 131.204 133.285 129.319L130.956 119.553Z" fill="#EB5774"/>
<path fill-rule="evenodd" clip-rule="evenodd" d="M227.496 38.4534L236.646 76.6415C242.854 64.9546 237.813 51.8909 240.437 35.3975C238.544 34.8074 236.281 34.1471 234.024 33.48C232.212 34.7621 230.04 36.4354 227.496 38.4534V38.4534Z" fill="#00B4B8"/>
<path fill-rule="evenodd" clip-rule="evenodd" d="M75.5728 129.545C76.5552 133.721 77.6525 138.398 78.7174 142.924C89.7996 140.804 102.1 138.002 114.93 134.57L130.956 119.553L112.194 113.787C100.78 119.25 88.585 124.557 75.5728 129.545V129.545Z" fill="#F54C65"/>
<path fill-rule="evenodd" clip-rule="evenodd" d="M423.9 133.92C426.227 143.783 428.1 151.5 428.463 152.096L440.673 155.832C455.906 156.321 465.665 154.405 466.683 149.994C451.734 144.827 437.484 139.443 423.9 133.92V133.92Z" fill="#F5C044"/>
<path fill-rule="evenodd" clip-rule="evenodd" d="M329.988 88.6026L303.137 113.716C302.833 113.841 300.416 116.013 296.879 119.277L297.226 119.432L303.298 113.758C304.527 113.765 332.603 122.628 334.593 123.228L365.705 132.847L365.738 132.722C365.306 130.099 364.426 127.287 363.824 124.632L358.951 104.183C348.788 98.9789 339.131 93.7681 329.988 88.6026V88.6026Z" fill="#1BD48D"/>
<path fill-rule="evenodd" clip-rule="evenodd" d="M365.879 133.009C365.9 134.078 366.446 135.783 366.708 136.905L368.382 143.935C389.51 149.399 409.304 153.02 425.518 154.745L428.245 152.192C426.777 151.323 385.439 138.911 381.451 137.643L366.018 133.009C365.993 133.008 365.924 133.005 365.879 133.009V133.009Z" fill="#EBF213"/>
<path fill-rule="evenodd" clip-rule="evenodd" d="M222.17 16.3197L223.645 22.5015C224.29 25.1655 224.8 27.9511 225.572 30.5118L225.526 30.8857L225.739 31.1165L225.894 30.9124C226.847 29.5298 229.824 26.6923 232.591 24.1459C228.839 21.3337 225.366 18.7146 222.17 16.3197V16.3197Z" fill="#00A8AD"/>
<path fill-rule="evenodd" clip-rule="evenodd" d="M225.739 31.1165L225.526 30.8857L205.061 50.0475C213.191 63.148 224.884 75.0646 238.838 85.7958L225.739 31.1165Z" fill="#00989D"/>
<path fill-rule="evenodd" clip-rule="evenodd" d="M440.673 155.832L428.463 152.096L428.257 152.29C428.364 152.568 428.633 153.581 429.009 155.085C433.181 155.47 437.074 155.717 440.673 155.832Z" fill="#FFBA6B"/>
<path fill-rule="evenodd" clip-rule="evenodd" d="M383.417 116.201L365.738 132.722L365.705 132.847L365.879 133.009C365.925 133.005 365.993 133.008 366.018 133.009L381.451 137.643C385.439 138.911 426.777 151.323 428.245 152.192L428.257 152.29L428.463 152.096C428.1 151.5 426.227 143.783 423.9 133.92C409.678 128.138 396.187 122.204 383.417 116.201Z" fill="#D4DB0D"/>
<path fill-rule="evenodd" clip-rule="evenodd" d="M303.298 113.758L297.227 119.432C299.986 120.653 302.757 121.854 305.549 123.014L305.223 121.65C304.598 119.075 304.095 116.154 303.298 113.758V113.758Z" fill="#15AD7D"/>
<path fill-rule="evenodd" clip-rule="evenodd" d="M232.591 24.1459C229.824 26.6923 226.847 29.5298 225.894 30.9124C229.807 32.3468 236.949 34.272 241.357 35.6882C245.409 36.9912 249.273 38.1459 253.232 39.3455C245.579 33.8386 238.715 28.7366 232.591 24.1459V24.1459Z" fill="#00A7AE"/>
<path fill-rule="evenodd" clip-rule="evenodd" d="M279.839 57.7846L245.075 90.4117C249.89 93.8375 254.932 97.1303 260.158 100.294L299.177 112.342C300.387 112.698 301.845 113.055 302.981 113.55C303.427 112.646 303.049 112.39 302.82 111.427L297.683 89.7044C297.11 87.1543 296.329 84.4779 295.763 81.8343C295.557 80.8666 293.69 73.1967 291.885 65.6488C287.732 62.9877 283.709 60.3613 279.839 57.7846Z" fill="#009E86"/>
<path fill-rule="evenodd" clip-rule="evenodd" d="M365.879 133.009L365.705 132.847L357.138 140.89C360.921 141.964 364.67 142.975 368.382 143.935L366.708 136.905C366.446 135.783 365.9 134.078 365.879 133.009V133.009Z" fill="#C9E04A"/>
<path fill-rule="evenodd" clip-rule="evenodd" d="M205.061 50.0475L225.526 30.8857L225.572 30.5118C224.933 30.7528 222.605 29.8687 221.718 29.5758L193.664 20.9188C195.461 31.1914 199.389 40.9074 205.061 50.0475V50.0475Z" fill="#00AEB5"/>
<path fill-rule="evenodd" clip-rule="evenodd" d="M303.298 113.758C304.095 116.154 304.598 119.075 305.223 121.65L305.549 123.014C322.599 130.103 340.161 136.07 357.138 140.89L365.705 132.847L334.593 123.228C332.603 122.628 304.527 113.765 303.298 113.758V113.758Z" fill="#43E6A7"/>
<path fill-rule="evenodd" clip-rule="evenodd" d="M193.664 20.9188L221.718 29.5758C222.605 29.8687 224.933 30.7528 225.572 30.5118C224.8 27.9511 224.29 25.1655 223.645 22.5015L222.17 16.3197C202.455 1.54561 193.171 -4.75739 192.67 3.99671C192.337 9.79871 192.705 15.436 193.664 20.9188V20.9188Z" fill="#00BBB8"/>
<path fill-rule="evenodd" clip-rule="evenodd" d="M225.894 30.9124L225.739 31.1165L238.838 85.7958C240.872 87.3595 242.949 88.8991 245.075 90.4117L279.839 57.7846C270.094 51.2961 261.236 45.104 253.232 39.3459C249.273 38.1462 245.409 36.9912 241.357 35.6882C236.949 34.272 229.807 32.3468 225.894 30.9124V30.9124Z" fill="#00B4B8"/>
<path fill-rule="evenodd" clip-rule="evenodd" d="M291.885 65.6488C293.69 73.1967 295.557 80.8666 295.763 81.8343C296.329 84.4779 297.11 87.1543 297.683 89.7044L302.82 111.427C303.049 112.39 303.427 112.646 302.981 113.55L303.137 113.716L329.988 88.6026C316.147 80.7815 303.465 73.0696 291.885 65.6488Z" fill="#289171"/>
<path fill-rule="evenodd" clip-rule="evenodd" d="M358.951 104.183L363.824 124.632C364.426 127.287 365.306 130.099 365.738 132.722L383.417 116.201C374.945 112.216 366.801 108.202 358.951 104.183Z" fill="#93C431"/>
<path fill-rule="evenodd" clip-rule="evenodd" d="M428.257 152.29L428.245 152.192L425.518 154.745C426.706 154.871 427.86 154.979 429.009 155.085C428.633 153.581 428.364 152.568 428.257 152.29Z" fill="#EBC332"/>
<path fill-rule="evenodd" clip-rule="evenodd" d="M296.879 119.277C300.416 116.013 302.833 113.841 303.137 113.716L302.981 113.55C301.845 113.055 300.386 112.698 299.177 112.342L260.158 100.294C271.674 107.262 284.069 113.594 296.879 119.277V119.277Z" fill="#03876F"/>
<path d="M422.034 247.874C417.335 248.531 413.361 249.359 410.044 250.396C406.726 251.398 403.997 252.78 401.82 254.508C399.643 256.236 398.054 258.344 397.052 260.866C396.05 263.423 395.531 266.533 395.531 270.265C395.531 273.03 396.015 275.587 397.017 277.971C397.985 280.321 399.401 282.359 401.267 284.087C403.133 285.815 405.379 287.162 408.075 288.095C410.735 289.028 413.776 289.513 417.163 289.513C421.758 289.513 425.974 288.649 429.844 286.886C433.679 285.124 437.031 282.67 439.83 279.595C442.629 276.485 444.841 272.753 446.431 268.434C448.02 264.114 448.815 259.415 448.815 254.335V244.107L422.034 247.874ZM448.815 298.22V279.768H448.4C445.048 286.402 440.418 291.551 434.578 295.214C428.738 298.877 422.138 300.708 414.778 300.708C409.768 300.708 405.276 299.982 401.267 298.565C397.224 297.149 393.838 295.145 391.039 292.553C388.205 289.927 386.063 286.817 384.543 283.154C383.022 279.492 382.262 275.483 382.262 271.06C382.262 261.661 385.165 254.163 390.97 248.599C396.775 243.002 405.552 239.373 417.301 237.68L448.815 233.119C448.815 213.215 441.074 203.263 425.559 203.263C413.43 203.263 402.165 207.686 391.799 216.533V202.365C393.976 200.845 396.43 199.428 399.159 198.184C401.924 196.94 404.827 195.869 407.867 194.936C410.908 194.037 414.052 193.346 417.266 192.828C420.514 192.31 423.624 192.068 426.7 192.068C438.275 192.068 447.052 195.316 452.961 201.778C458.905 208.274 461.876 217.914 461.876 230.769V298.22H448.815ZM299.054 279.595C301.023 281.15 303.132 282.532 305.412 283.742C307.693 284.951 310.077 285.988 312.496 286.886C314.915 287.75 317.333 288.406 319.821 288.856C322.275 289.305 324.59 289.513 326.836 289.513C342.178 289.513 349.849 283.742 349.849 272.235C349.849 269.609 349.297 267.328 348.226 265.393C347.154 263.458 345.599 261.696 343.595 260.106C341.556 258.516 339.138 257.065 336.304 255.718C333.47 254.37 330.257 252.953 326.698 251.468C321.895 249.498 317.783 247.493 314.327 245.489C310.906 243.451 308.073 241.239 305.827 238.855C303.615 236.436 301.956 233.81 300.885 230.941C299.814 228.074 299.261 224.791 299.261 221.163C299.261 216.567 300.263 212.455 302.233 208.896C304.237 205.302 306.898 202.261 310.25 199.774C313.636 197.285 317.506 195.35 321.895 194.037C326.318 192.724 330.948 192.068 335.786 192.068C344.736 192.068 352.51 193.761 359.179 197.113V210.762C351.439 205.751 343.077 203.263 334.127 203.263C330.913 203.263 327.976 203.678 325.316 204.473C322.655 205.302 320.374 206.443 318.474 207.928C316.607 209.414 315.122 211.211 314.086 213.284C313.048 215.358 312.53 217.638 312.53 220.126C312.53 222.718 312.945 224.964 313.74 226.864C314.569 228.799 315.813 230.562 317.54 232.117C319.268 233.637 321.48 235.123 324.21 236.574C326.94 237.991 330.257 239.512 334.196 241.135C339.172 243.14 343.491 245.144 347.119 247.148C350.782 249.152 353.789 251.295 356.138 253.644C358.488 255.959 360.251 258.551 361.391 261.453C362.531 264.322 363.118 267.639 363.118 271.405C363.118 276.07 362.151 280.252 360.251 283.88C358.316 287.543 355.654 290.618 352.268 293.106C348.882 295.594 344.874 297.494 340.312 298.773C335.751 300.051 330.775 300.708 325.385 300.708C314.949 300.708 306.172 298.496 299.054 294.108V279.595ZM260.629 298.22V238.44C260.629 214.977 252.163 203.263 235.197 203.263C230.704 203.263 226.523 204.162 222.688 205.959C218.852 207.755 215.535 210.209 212.736 213.388C209.972 216.567 207.76 220.334 206.205 224.687C204.616 229.042 203.821 233.775 203.821 238.82V298.22H190.759V194.556H203.821V212.524H204.235C211.906 198.875 223.483 192.068 238.894 192.068C250.228 192.068 258.866 195.73 264.81 203.091C270.719 210.451 273.691 221.094 273.691 235.019V298.22H260.629ZM119.818 247.874C115.118 248.531 111.145 249.359 107.827 250.396C104.51 251.398 101.78 252.78 99.6032 254.508C97.426 256.236 95.8371 258.344 94.835 260.866C93.8326 263.423 93.3144 266.533 93.3144 270.265C93.3144 273.03 93.7979 275.587 94.8 277.971C95.7677 280.321 97.1846 282.359 99.0503 284.087C100.916 285.815 103.162 287.162 105.858 288.095C108.518 289.028 111.559 289.513 114.946 289.513C119.541 289.513 123.757 288.649 127.627 286.886C131.463 285.124 134.814 282.67 137.614 279.595C140.413 276.485 142.624 272.753 144.213 268.434C145.803 264.114 146.598 259.415 146.598 254.335V244.107L119.818 247.874ZM146.598 298.22V279.768H146.183C142.831 286.402 138.201 291.551 132.361 295.214C126.521 298.877 119.922 300.708 112.561 300.708C107.551 300.708 103.059 299.982 99.0503 298.565C95.0074 297.149 91.6211 295.145 88.822 292.553C85.9885 289.927 83.8464 286.817 82.3258 283.154C80.8051 279.492 80.0452 275.483 80.0452 271.06C80.0452 261.661 82.948 254.163 88.753 248.599C94.5582 243.002 103.335 239.373 115.084 237.68L146.598 233.119C146.598 213.215 138.858 203.263 123.342 203.263C111.214 203.263 99.9487 207.686 89.5823 216.533V202.365C91.7591 200.845 94.2128 199.428 96.9425 198.184C99.7069 196.94 102.609 195.869 105.651 194.936C108.691 194.037 111.836 193.346 115.049 192.828C118.247 192.318 121.31 192.075 124.339 192.068H124.483C136.059 192.068 144.835 195.316 150.744 201.778C156.688 208.274 159.66 217.914 159.66 230.769V298.22H146.598ZM51.2262 298.22H37.7503V192.068H51.2262V298.22ZM57.752 282.99H70.7378V297.521H57.752V282.99ZM166.548 282.99H179.534V297.521H166.548V282.99ZM279.439 282.99H292.425V297.521H279.439V282.99ZM364.891 282.99H377.877V297.521H364.891V282.99ZM467.424 282.99H480.41V297.521H467.424V282.99Z" fill="url(#paint1_linear)"/>
<path d="M500.335 180.49C502.518 180.49 504.648 181.048 506.73 182.172C508.807 183.29 510.43 184.896 511.589 186.978C512.748 189.067 513.331 191.243 513.331 193.503C513.331 195.744 512.76 197.903 511.613 199.968C510.472 202.038 508.871 203.644 506.807 204.786C504.742 205.933 502.583 206.504 500.335 206.504C498.082 206.504 495.923 205.933 493.858 204.786C491.793 203.644 490.188 202.038 489.04 199.968C487.893 197.903 487.316 195.744 487.316 193.503C487.316 191.243 487.899 189.067 489.064 186.978C490.234 184.896 491.858 183.29 493.935 182.172C496.017 181.048 498.147 180.49 500.335 180.49V180.49ZM500.335 182.643C498.506 182.643 496.723 183.113 494.994 184.049C493.264 184.984 491.911 186.325 490.934 188.067C489.958 189.808 489.47 191.62 489.47 193.503C489.47 195.379 489.952 197.174 490.911 198.891C491.87 200.609 493.211 201.95 494.935 202.909C496.658 203.868 498.459 204.35 500.335 204.35C502.206 204.35 504.006 203.868 505.73 202.909C507.453 201.95 508.795 200.609 509.748 198.891C510.701 197.174 511.177 195.379 511.177 193.503C511.177 191.62 510.689 189.808 509.719 188.067C508.748 186.325 507.395 184.984 505.659 184.049C503.924 183.113 502.147 182.643 500.335 182.643V182.643ZM494.623 200.68V186.702H499.435C501.082 186.702 502.271 186.831 503.006 187.09C503.747 187.349 504.33 187.796 504.771 188.443C505.206 189.084 505.424 189.767 505.424 190.49C505.424 191.508 505.059 192.403 504.324 193.155C503.594 193.914 502.623 194.338 501.412 194.432C501.906 194.638 502.306 194.885 502.6 195.173C503.165 195.72 503.854 196.644 504.671 197.944L506.377 200.68H503.636L502.388 198.479C501.412 196.744 500.618 195.655 500.018 195.22C499.606 194.903 499.006 194.744 498.211 194.749H496.882V200.68H494.623ZM496.882 192.808H499.623C500.935 192.808 501.83 192.614 502.306 192.226C502.783 191.838 503.024 191.32 503.024 190.684C503.024 190.273 502.906 189.902 502.677 189.579C502.447 189.249 502.129 189.008 501.724 188.849C501.312 188.69 500.559 188.608 499.453 188.608H496.882V192.808Z" fill="url(#paint2_linear)"/>
<defs>
<linearGradient id="paint0_linear" x1="184.234" y1="-0.867901" x2="236.932" y2="71.6642" gradientUnits="userSpaceOnUse">
<stop stop-color="#FFEF63"/>
<stop offset="1" stop-color="white"/>
</linearGradient>
<linearGradient id="paint1_linear" x1="7.42757" y1="196.809" x2="-0.150793" y2="305.184" gradientUnits="userSpaceOnUse">
<stop stop-color="#3A80BC"/>
<stop offset="1" stop-color="#243556"/>
</linearGradient>
<linearGradient id="paint2_linear" x1="456.706" y1="216.619" x2="454.892" y2="242.57" gradientUnits="userSpaceOnUse">
<stop stop-color="#3A80BC"/>
<stop offset="1" stop-color="#243556"/>
</linearGradient>
</defs>
</svg>
